<svg version="1.1" id="Layer_1" xmlns="http://www.w3.org/2000/svg" x="0" y="0" viewBox="0 0 55.32 38.52"
    style="enable-background:new 0 0 55.32 38.52" xml:space="preserve">
    <style>
        .st1 {
            fill: #fff
        }

        .st3 {
            fill: #fc0
        }
    </style>
    <path
        d="M3.09.06h49.13c1.67 0 3.03 1.36 3.03 3.03v32.33c0 1.67-1.36 3.03-3.03 3.03H3.09c-1.67 0-3.03-1.37-3.03-3.03V3.09C.06 1.42 1.42.06 3.09.06z"
        style="fill:#cc0001" />
    <path class="st1"
        d="M.1 35.92h55.12c-.24 1.44-1.49 2.54-2.99 2.54H3.09c-1.5 0-2.75-1.1-2.99-2.54zM.06 30.38h55.2v2.77H.06v-2.77zM.06 24.84h55.2v2.77H.06v-2.77zM.06 19.29h55.2v2.77H.06v-2.77zM.06 13.75h55.2v2.77H.06v-2.77zM.06 8.21h55.2v2.77H.06V8.21zM.09 2.67h55.14c.02.14.03.28.03.42v2.35H.06V3.09c0-.14.01-.28.03-.42z" />
    <path d="M36.64.06v22H.06V3.09C.06 1.42 1.42.06 3.09.06h33.55z" style="fill:#010066" />
    <path class="st3"
        d="M13.81 2.67c-4.6 0-8.34 3.72-8.34 8.31s3.74 8.31 8.34 8.31c1.66 0 3.21-.49 4.51-1.32-.76.26-1.57.4-2.42.4-4.08 0-7.4-3.3-7.4-7.37s3.31-7.37 7.4-7.37c.9 0 1.77.16 2.57.46-1.33-.9-2.93-1.42-4.66-1.42z" />
    <path class="st3"
        d="m27.64 15.31-3.51-1.83 1.04 3.75-2.35-3.14-.73 3.82-.73-3.82-2.35 3.13 1.05-3.75-3.52 1.82 2.61-2.93-3.98.15 3.66-1.53-3.66-1.55 3.99.16-2.61-2.94 3.51 1.84-1.03-3.75 2.34 3.13.74-3.82.72 3.83 2.36-3.14-1.05 3.75 3.52-1.82-2.62 2.93 3.98-.15-3.66 1.54 3.66 1.54-3.98-.16 2.6 2.94z" />
    <path
        d="M3.09.06h49.13c1.67 0 3.03 1.36 3.03 3.03v32.33c0 1.67-1.36 3.03-3.03 3.03H3.09c-1.67 0-3.03-1.37-3.03-3.03V3.09C.06 1.42 1.42.06 3.09.06z"
        style="fill:none;stroke:#ccc;stroke-width:.1199;stroke-miterlimit:2.6131" />
</svg>